<svg width="15" height="15" viewBox="0 0 15 15" fill="none" xmlns="http://www.w3.org/2000/svg">
<path d="M3.75 12.5C4.09722 12.5 4.39236 12.3785 4.63542 12.1354C4.87847 11.8924 5 11.5972 5 11.25C5 10.9028 4.87847 10.6076 4.63542 10.3646C4.39236 10.1215 4.09722 10 3.75 10C3.40278 10 3.10764 10.1215 2.86458 10.3646C2.62153 10.6076 2.5 10.9028 2.5 11.25C2.5 11.5972 2.62153 11.8924 2.86458 12.1354C3.10764 12.3785 3.40278 12.5 3.75 12.5ZM3.75 5C4.09722 5 4.39236 4.87847 4.63542 4.63542C4.87847 4.39236 5 4.09722 5 3.75C5 3.40278 4.87847 3.10764 4.63542 2.86458C4.39236 2.62153 4.09722 2.5 3.75 2.5C3.40278 2.5 3.10764 2.62153 2.86458 2.86458C2.62153 3.10764 2.5 3.40278 2.5 3.75C2.5 4.09722 2.62153 4.39236 2.86458 4.63542C3.10764 4.87847 3.40278 5 3.75 5ZM7.5 8.75C7.84722 8.75 8.14236 8.62847 8.38542 8.38542C8.62847 8.14236 8.75 7.84722 8.75 7.5C8.75 7.15278 8.62847 6.85764 8.38542 6.61458C8.14236 6.37153 7.84722 6.25 7.5 6.25C7.15278 6.25 6.85764 6.37153 6.61458 6.61458C6.37153 6.85764 6.25 7.15278 6.25 7.5C6.25 7.84722 6.37153 8.14236 6.61458 8.38542C6.85764 8.62847 7.15278 8.75 7.5 8.75ZM11.25 12.5C11.5972 12.5 11.8924 12.3785 12.1354 12.1354C12.3785 11.8924 12.5 11.5972 12.5 11.25C12.5 10.9028 12.3785 10.6076 12.1354 10.3646C11.8924 10.1215 11.5972 10 11.25 10C10.9028 10 10.6076 10.1215 10.3646 10.3646C10.1215 10.6076 10 10.9028 10 11.25C10 11.5972 10.1215 11.8924 10.3646 12.1354C10.6076 12.3785 10.9028 12.5 11.25 12.5ZM11.25 5C11.5972 5 11.8924 4.87847 12.1354 4.63542C12.3785 4.39236 12.5 4.09722 12.5 3.75C12.5 3.40278 12.3785 3.10764 12.1354 2.86458C11.8924 2.62153 11.5972 2.5 11.25 2.5C10.9028 2.5 10.6076 2.62153 10.3646 2.86458C10.1215 3.10764 10 3.40278 10 3.75C10 4.09722 10.1215 4.39236 10.3646 4.63542C10.6076 4.87847 10.9028 5 11.25 5ZM1.66667 15C1.20833 15 0.815972 14.8368 0.489583 14.5104C0.163194 14.184 0 13.7917 0 13.3333V1.66667C0 1.20833 0.163194 0.815972 0.489583 0.489583C0.815972 0.163194 1.20833 0 1.66667 0H13.3333C13.7917 0 14.184 0.163194 14.5104 0.489583C14.8368 0.815972 15 1.20833 15 1.66667V13.3333C15 13.7917 14.8368 14.184 14.5104 14.5104C14.184 14.8368 13.7917 15 13.3333 15H1.66667ZM1.66667 13.3333H13.3333V1.66667H1.66667V13.3333ZM1.66667 1.66667V13.3333V1.66667Z" fill="#00327D"/>
</svg>
