<svg width="25" height="20" viewBox="0 0 25 20" fill="none" xmlns="http://www.w3.org/2000/svg">
<path d="M12.5 16.25C12.8542 16.25 13.151 16.1302 13.3906 15.8906C13.6302 15.651 13.75 15.3542 13.75 15C13.75 14.6458 13.6302 14.349 13.3906 14.1094C13.151 13.8698 12.8542 13.75 12.5 13.75C12.1458 13.75 11.849 13.8698 11.6094 14.1094C11.3698 14.349 11.25 14.6458 11.25 15C11.25 15.3542 11.3698 15.651 11.6094 15.8906C11.849 16.1302 12.1458 16.25 12.5 16.25ZM12.5 11.25C12.8542 11.25 13.151 11.1302 13.3906 10.8906C13.6302 10.651 13.75 10.3542 13.75 10C13.75 9.64583 13.6302 9.34896 13.3906 9.10938C13.151 8.86979 12.8542 8.75 12.5 8.75C12.1458 8.75 11.849 8.86979 11.6094 9.10938C11.3698 9.34896 11.25 9.64583 11.25 10C11.25 10.3542 11.3698 10.651 11.6094 10.8906C11.849 11.1302 12.1458 11.25 12.5 11.25ZM12.5 6.25C12.8542 6.25 13.151 6.13021 13.3906 5.89062C13.6302 5.65104 13.75 5.35417 13.75 5C13.75 4.64583 13.6302 4.34896 13.3906 4.10938C13.151 3.86979 12.8542 3.75 12.5 3.75C12.1458 3.75 11.849 3.86979 11.6094 4.10938C11.3698 4.34896 11.25 4.64583 11.25 5C11.25 5.35417 11.3698 5.65104 11.6094 5.89062C11.849 6.13021 12.1458 6.25 12.5 6.25ZM22.5 20H2.5C1.8125 20 1.22396 19.7552 0.734375 19.2656C0.244792 18.776 0 18.1875 0 17.5V12.5C0.6875 12.5 1.27604 12.2552 1.76562 11.7656C2.25521 11.276 2.5 10.6875 2.5 10C2.5 9.3125 2.25521 8.72396 1.76562 8.23438C1.27604 7.74479 0.6875 7.5 0 7.5V2.5C0 1.8125 0.244792 1.22396 0.734375 0.734375C1.22396 0.244792 1.8125 0 2.5 0H22.5C23.1875 0 23.776 0.244792 24.2656 0.734375C24.7552 1.22396 25 1.8125 25 2.5V7.5C24.3125 7.5 23.724 7.74479 23.2344 8.23438C22.7448 8.72396 22.5 9.3125 22.5 10C22.5 10.6875 22.7448 11.276 23.2344 11.7656C23.724 12.2552 24.3125 12.5 25 12.5V17.5C25 18.1875 24.7552 18.776 24.2656 19.2656C23.776 19.7552 23.1875 20 22.5 20ZM22.5 17.5V14.3125C21.7292 13.8542 21.1198 13.2448 20.6719 12.4844C20.224 11.724 20 10.8958 20 10C20 9.10417 20.224 8.27604 20.6719 7.51562C21.1198 6.75521 21.7292 6.14583 22.5 5.6875V2.5H2.5V5.6875C3.27083 6.14583 3.88021 6.75521 4.32812 7.51562C4.77604 8.27604 5 9.10417 5 10C5 10.8958 4.77604 11.724 4.32812 12.4844C3.88021 13.2448 3.27083 13.8542 2.5 14.3125V17.5H22.5Z" fill="#C3C6D5"/>
</svg>
